<?xml version="1.0" encoding="UTF-8" standalone="no"?>
<svg
   xmlns:dc="http://purl.org/dc/elements/1.1/"
   xmlns:cc="http://creativecommons.org/ns#"
   xmlns:rdf="http://www.w3.org/1999/02/22-rdf-syntax-ns#"
   xmlns:svg="http://www.w3.org/2000/svg"
   xmlns="http://www.w3.org/2000/svg"
   xmlns:xlink="http://www.w3.org/1999/xlink"
   xmlns:sodipodi="http://sodipodi.sourceforge.net/DTD/sodipodi-0.dtd"
   xmlns:inkscape="http://www.inkscape.org/namespaces/inkscape"
   viewBox="0 0 920 480"
   id="svg2"
   version="1.1"
   inkscape:version="0.91 r13725"
   sodipodi:docname="cadeaux.svg"
   width="920"
   height="480">
  <metadata
     id="metadata300">
    <rdf:RDF>
      <cc:Work
         rdf:about="">
        <dc:format>image/svg+xml</dc:format>
        <dc:type
           rdf:resource="http://purl.org/dc/dcmitype/StillImage" />
        <dc:title></dc:title>
      </cc:Work>
    </rdf:RDF>
  </metadata>
  <sodipodi:namedview
     pagecolor="#ffffff"
     bordercolor="#666666"
     borderopacity="1"
     objecttolerance="10"
     gridtolerance="10"
     guidetolerance="10"
     inkscape:pageopacity="0"
     inkscape:pageshadow="2"
     inkscape:window-width="1169"
     inkscape:window-height="747"
     id="namedview298"
     showgrid="false"
     inkscape:zoom="0.484375"
     inkscape:cx="61.935484"
     inkscape:cy="240"
     inkscape:window-x="0"
     inkscape:window-y="0"
     inkscape:window-maximized="0"
     inkscape:current-layer="svg2" />
  <defs
     id="defs4">
    <clipPath
       id="ae">
      <use
         height="100%"
         width="100%"
         xlink:href="#a"
         overflow="visible"
         id="use7"
         style="overflow:visible"
         x="0"
         y="0" />
    </clipPath>
    <clipPath
       id="af">
      <use
         height="100%"
         width="100%"
         xlink:href="#b"
         overflow="visible"
         id="use10"
         style="overflow:visible"
         x="0"
         y="0" />
    </clipPath>
    <clipPath
       id="ag">
      <use
         height="100%"
         width="100%"
         xlink:href="#c"
         overflow="visible"
         id="use13"
         style="overflow:visible"
         x="0"
         y="0" />
    </clipPath>
    <clipPath
       id="ah">
      <use
         height="100%"
         width="100%"
         xlink:href="#d"
         overflow="visible"
         id="use16"
         style="overflow:visible"
         x="0"
         y="0" />
    </clipPath>
    <clipPath
       id="aa">
      <use
         height="100%"
         width="100%"
         xlink:href="#e"
         overflow="visible"
         id="use19"
         style="overflow:visible"
         x="0"
         y="0" />
    </clipPath>
    <clipPath
       id="ab">
      <use
         height="100%"
         width="100%"
         xlink:href="#f"
         overflow="visible"
         id="use22"
         style="overflow:visible"
         x="0"
         y="0" />
    </clipPath>
    <clipPath
       id="ac">
      <use
         height="100%"
         width="100%"
         xlink:href="#g"
         overflow="visible"
         id="use25"
         style="overflow:visible"
         x="0"
         y="0" />
    </clipPath>
    <clipPath
       id="ad">
      <use
         height="100%"
         width="100%"
         xlink:href="#h"
         overflow="visible"
         id="use28"
         style="overflow:visible"
         x="0"
         y="0" />
    </clipPath>
    <clipPath
       id="W">
      <use
         height="100%"
         width="100%"
         xlink:href="#i"
         overflow="visible"
         id="use31"
         style="overflow:visible"
         x="0"
         y="0" />
    </clipPath>
    <clipPath
       id="X">
      <use
         height="100%"
         width="100%"
         xlink:href="#j"
         overflow="visible"
         id="use34"
         style="overflow:visible"
         x="0"
         y="0" />
    </clipPath>
    <clipPath
       id="Y">
      <use
         height="100%"
         width="100%"
         xlink:href="#k"
         overflow="visible"
         id="use37"
         style="overflow:visible"
         x="0"
         y="0" />
    </clipPath>
    <clipPath
       id="Z">
      <use
         height="100%"
         width="100%"
         xlink:href="#l"
         overflow="visible"
         id="use40"
         style="overflow:visible"
         x="0"
         y="0" />
    </clipPath>
    <clipPath
       id="S">
      <use
         height="100%"
         width="100%"
         xlink:href="#m"
         overflow="visible"
         id="use43"
         style="overflow:visible"
         x="0"
         y="0" />
    </clipPath>
    <clipPath
       id="T">
      <use
         height="100%"
         width="100%"
         xlink:href="#n"
         overflow="visible"
         id="use46"
         style="overflow:visible"
         x="0"
         y="0" />
    </clipPath>
    <clipPath
       id="U">
      <use
         height="100%"
         width="100%"
         xlink:href="#o"
         overflow="visible"
         id="use49"
         style="overflow:visible"
         x="0"
         y="0" />
    </clipPath>
    <clipPath
       id="V">
      <use
         height="100%"
         width="100%"
         xlink:href="#p"
         overflow="visible"
         id="use52"
         style="overflow:visible"
         x="0"
         y="0" />
    </clipPath>
    <clipPath
       id="O">
      <use
         height="100%"
         width="100%"
         xlink:href="#q"
         overflow="visible"
         id="use55"
         style="overflow:visible"
         x="0"
         y="0" />
    </clipPath>
    <clipPath
       id="P">
      <use
         height="100%"
         width="100%"
         xlink:href="#r"
         overflow="visible"
         id="use58"
         style="overflow:visible"
         x="0"
         y="0" />
    </clipPath>
    <clipPath
       id="Q">
      <use
         height="100%"
         width="100%"
         xlink:href="#s"
         overflow="visible"
         id="use61"
         style="overflow:visible"
         x="0"
         y="0" />
    </clipPath>
    <clipPath
       id="R">
      <use
         height="100%"
         width="100%"
         xlink:href="#t"
         overflow="visible"
         id="use64"
         style="overflow:visible"
         x="0"
         y="0" />
    </clipPath>
    <clipPath
       id="M">
      <use
         height="100%"
         width="100%"
         xlink:href="#u"
         overflow="visible"
         id="use67"
         style="overflow:visible"
         x="0"
         y="0" />
    </clipPath>
    <clipPath
       id="N">
      <use
         height="100%"
         width="100%"
         xlink:href="#v"
         overflow="visible"
         id="use70"
         style="overflow:visible"
         x="0"
         y="0" />
    </clipPath>
    <clipPath
       id="K">
      <use
         height="100%"
         width="100%"
         xlink:href="#w"
         overflow="visible"
         id="use73"
         style="overflow:visible"
         x="0"
         y="0" />
    </clipPath>
    <clipPath
       id="L">
      <use
         height="100%"
         width="100%"
         xlink:href="#x"
         overflow="visible"
         id="use76"
         style="overflow:visible"
         x="0"
         y="0" />
    </clipPath>
    <clipPath
       id="I">
      <use
         height="100%"
         width="100%"
         xlink:href="#y"
         overflow="visible"
         id="use79"
         style="overflow:visible"
         x="0"
         y="0" />
    </clipPath>
    <clipPath
       id="J">
      <use
         height="100%"
         width="100%"
         xlink:href="#z"
         overflow="visible"
         id="use82"
         style="overflow:visible"
         x="0"
         y="0" />
    </clipPath>
    <clipPath
       id="G">
      <use
         height="100%"
         width="100%"
         xlink:href="#A"
         overflow="visible"
         id="use85"
         style="overflow:visible"
         x="0"
         y="0" />
    </clipPath>
    <clipPath
       id="H">
      <use
         height="100%"
         width="100%"
         xlink:href="#B"
         overflow="visible"
         id="use88"
         style="overflow:visible"
         x="0"
         y="0" />
    </clipPath>
    <clipPath
       id="E">
      <use
         height="100%"
         width="100%"
         xlink:href="#C"
         overflow="visible"
         id="use91"
         style="overflow:visible"
         x="0"
         y="0" />
    </clipPath>
    <clipPath
       id="F">
      <use
         height="100%"
         width="100%"
         xlink:href="#D"
         overflow="visible"
         id="use94"
         style="overflow:visible"
         x="0"
         y="0" />
    </clipPath>
  </defs>
  <g
     id="g3628"
     transform="translate(140.00054,0)">
    <path
       style="fill:none;stroke:#8b999e;stroke-width:3.24336004;stroke-miterlimit:10"
       inkscape:connector-curvature="0"
       id="path96"
       stroke-miterlimit="10"
       class="st0"
       d="M 207.293,72.102 C 231.186,59.452 263.187,55.345 281.35,54.047" />
    <path
       style="fill:#8b999e"
       inkscape:connector-curvature="0"
       id="path98"
       d="m 278.43,59.02 17.3,-5.62 -17.732,-3.785 z"
       class="st1" />
    <g
       id="g100"
       transform="matrix(1.08112,0,0,1.08112,-26.013,-19.47)">
      <defs
         id="defs102">
        <path
           inkscape:connector-curvature="0"
           d="m 40.1,177.2 73.9,0 0,73.9 -73.9,0 z"
           id="C" />
      </defs>
      <g
         id="g105"
         class="st2"
         clip-path="url(#E)">
        <defs
           id="defs107">
          <path
             inkscape:connector-curvature="0"
             d="m 40.1,177.2 73.9,0 0,73.9 -73.9,0 z"
             id="D" />
        </defs>
        <path
           style="fill:#607d8b"
           inkscape:connector-curvature="0"
           id="path110"
           class="st3"
           d="m 77,214.1 c 10.2,0 18.5,-8.3 18.5,-18.5 0,-10.2 -8.3,-18.5 -18.5,-18.5 -10.2,0 -18.5,8.3 -18.5,18.5 0,10.3 8.3,18.5 18.5,18.5 m 0,9.3 c -12.3,0 -36.9,6.2 -36.9,18.5 l 0,9.2 73.9,0 0,-9.2 C 113.9,229.5 89.3,223.4 77,223.4"
           clip-path="url(#F)" />
      </g>
    </g>
    <g
       id="g112"
       transform="matrix(1.08112,0,0,1.08112,-26.013,-19.47)">
      <defs
         id="defs114">
        <path
           inkscape:connector-curvature="0"
           d="m 284.8,47.8 73.9,0 0,73.9 -73.9,0 z"
           id="A" />
      </defs>
      <g
         id="g117"
         class="st4"
         clip-path="url(#G)">
        <defs
           id="defs119">
          <path
             inkscape:connector-curvature="0"
             d="m 284.8,47.8 73.9,0 0,73.9 -73.9,0 z"
             id="B" />
        </defs>
        <path
           style="fill:#607d8b"
           inkscape:connector-curvature="0"
           id="path122"
           class="st5"
           d="m 321.8,84.7 c 10.2,0 18.5,-8.3 18.5,-18.5 0,-10.2 -8.3,-18.5 -18.5,-18.5 -10.2,0 -18.5,8.3 -18.5,18.5 0,10.3 8.2,18.5 18.5,18.5 m 0,9.3 c -12.3,0 -36.9,6.2 -36.9,18.5 l 0,9.2 73.9,0 0,-9.2 C 358.7,100.2 334.1,94 321.8,94"
           clip-path="url(#H)" />
      </g>
    </g>
    <g
       id="g124"
       transform="matrix(1.08112,0,0,1.08112,-26.013,-19.47)">
      <defs
         id="defs126">
        <path
           inkscape:connector-curvature="0"
           d="m 148.7,358.3 73.9,0 0,73.9 -73.9,0 z"
           id="y" />
      </defs>
      <g
         id="g129"
         class="st6"
         clip-path="url(#I)">
        <defs
           id="defs131">
          <path
             inkscape:connector-curvature="0"
             d="m 148.7,358.3 73.9,0 0,73.9 -73.9,0 z"
             id="z" />
        </defs>
        <path
           style="fill:#607d8b"
           inkscape:connector-curvature="0"
           id="path134"
           class="st7"
           d="m 185.6,395.3 c 10.2,0 18.5,-8.3 18.5,-18.5 0,-10.2 -8.3,-18.5 -18.5,-18.5 -10.2,0 -18.5,8.3 -18.5,18.5 0.1,10.2 8.3,18.5 18.5,18.5 m 0,9.2 c -12.3,0 -36.9,6.2 -36.9,18.5 l 0,9.2 73.9,0 0,-9.2 c 0,-12.3 -24.6,-18.5 -37,-18.5"
           clip-path="url(#J)" />
      </g>
    </g>
    <g
       id="g136"
       transform="matrix(1.08112,0,0,1.08112,-26.013,-19.47)">
      <defs
         id="defs138">
        <path
           inkscape:connector-curvature="0"
           d="m 428.2,358.3 73.9,0 0,73.9 -73.9,0 z"
           id="w" />
      </defs>
      <g
         id="g141"
         class="st8"
         clip-path="url(#K)">
        <defs
           id="defs143">
          <path
             inkscape:connector-curvature="0"
             d="m 428.2,358.3 73.9,0 0,73.9 -73.9,0 z"
             id="x" />
        </defs>
        <path
           style="fill:#607d8b"
           inkscape:connector-curvature="0"
           id="path146"
           class="st9"
           d="m 465.2,395.3 c 10.2,0 18.5,-8.3 18.5,-18.5 0,-10.2 -8.3,-18.5 -18.5,-18.5 -10.2,0 -18.5,8.3 -18.5,18.5 0,10.2 8.2,18.5 18.5,18.5 m 0,9.2 c -12.3,0 -36.9,6.2 -36.9,18.5 l 0,9.2 73.9,0 0,-9.2 c -0.1,-12.3 -24.7,-18.5 -37,-18.5"
           clip-path="url(#L)" />
      </g>
    </g>
    <g
       id="g148"
       transform="matrix(1.08112,0,0,1.08112,-26.013,-19.47)">
      <defs
         id="defs150">
        <path
           inkscape:connector-curvature="0"
           d="m 526.1,177.2 73.9,0 0,73.9 -73.9,0 z"
           id="u" />
      </defs>
      <g
         id="g153"
         class="st10"
         clip-path="url(#M)">
        <defs
           id="defs155">
          <path
             inkscape:connector-curvature="0"
             d="m 526.1,177.2 73.9,0 0,73.9 -73.9,0 z"
             id="v" />
        </defs>
        <path
           style="fill:#607d8b"
           inkscape:connector-curvature="0"
           id="path158"
           class="st11"
           d="m 563,214.1 c 10.2,0 18.5,-8.3 18.5,-18.5 0,-10.2 -8.3,-18.5 -18.5,-18.5 -10.2,0 -18.5,8.3 -18.5,18.5 0,10.3 8.3,18.5 18.5,18.5 m 0,9.3 c -12.3,0 -36.9,6.2 -36.9,18.5 l 0,9.2 73.9,0 0,-9.2 c -0.1,-12.4 -24.7,-18.5 -37,-18.5"
           clip-path="url(#N)" />
      </g>
    </g>
    <g
       id="g160"
       transform="matrix(1.08112,0,0,1.08112,-26.013,-19.47)">
      <defs
         id="defs162">
        <path
           inkscape:connector-curvature="0"
           d="m 136.1,69.1 78.2,0 0,71.1 -78.2,0 z"
           id="q" />
      </defs>
      <g
         id="g165"
         class="st12"
         clip-path="url(#O)">
        <defs
           id="defs167">
          <path
             inkscape:connector-curvature="0"
             d="m 136.1,69.1 78.2,0 0,71.1 -78.2,0 z"
             id="r" />
        </defs>
        <g
           id="g170"
           class="st13"
           clip-path="url(#P)">
          <defs
             id="defs172">
            <path
               inkscape:connector-curvature="0"
               d="m 136.5,69.5 77.4,0 0,70.3 -77.4,0 z"
               id="s" />
          </defs>
          <g
             id="g175"
             class="st14"
             clip-path="url(#Q)">
            <defs
               id="defs177">
              <path
                 inkscape:connector-curvature="0"
                 d="m 136.5,69.5 77.4,0 0,70.3 -77.4,0 z"
                 id="t" />
            </defs>
            <path
               style="fill:#b72126"
               inkscape:connector-curvature="0"
               id="path180"
               class="st15"
               d="m 213.8,90.6 0,10.5 c 0,2 -1.6,3.5 -3.5,3.5 l 0,28.1 c 0,3.9 -3.2,7 -7,7 l -56.3,0 c -3.9,0 -7,-3.2 -7,-7 l 0,-28.1 c -2,0 -3.5,-1.6 -3.5,-3.5 l 0,-10.5 c 0,-3.9 3.2,-7 7,-7 l 11.2,0 c -0.4,-1.1 -0.6,-2.3 -0.6,-3.5 0,-5.8 4.7,-10.6 10.5,-10.6 3.5,0 6.6,1.8 8.6,4.4 l 2,2.7 2,-2.7 c 1.9,-2.6 5,-4.4 8.6,-4.4 5.8,0 10.5,4.7 10.5,10.6 0,1.2 -0.2,2.4 -0.6,3.5 l 11.1,0 c 3.9,-0.1 7,3.1 7,7 m -7,0 -28.1,0 0,7 28.1,0 0,-7 z m -3.5,14 -24.6,0 0,28.1 24.6,0 0,-28.1 z M 189.2,80 c 0,-2 -1.6,-3.5 -3.5,-3.5 -2,0 -3.5,1.6 -3.5,3.5 0,1.9 1.6,3.5 3.5,3.5 1.9,0 3.5,-1.5 3.5,-3.5 m -17.6,24.6 -24.6,0 0,28.1 24.6,0 0,-28.1 z m 0,-14 -28.1,0 0,7 28.1,0 0,-7 z M 168.1,80 c 0,-2 -1.6,-3.5 -3.5,-3.5 -1.9,0 -3.5,1.6 -3.5,3.5 0,1.9 1.6,3.5 3.5,3.5 1.9,0 3.5,-1.5 3.5,-3.5"
               clip-path="url(#R)" />
          </g>
        </g>
      </g>
    </g>
    <path
       style="fill:none;stroke:#8b999e;stroke-width:3.24336004;stroke-miterlimit:10"
       inkscape:connector-curvature="0"
       id="path182"
       stroke-miterlimit="10"
       class="st0"
       d="m 73.99,172.106 c 20.542,-37.948 46.49,-54.813 46.49,-54.813" />
    <g
       id="g184"
       transform="matrix(1.08112,0,0,1.08112,-26.013,-19.47)">
      <defs
         id="defs186">
        <path
           inkscape:connector-curvature="0"
           d="m 517.2,296.5 78.2,0 0,71.1 -78.2,0 z"
           id="m" />
      </defs>
      <g
         id="g189"
         class="st16"
         clip-path="url(#S)">
        <defs
           id="defs191">
          <path
             inkscape:connector-curvature="0"
             d="m 517.2,296.5 78.2,0 0,71.1 -78.2,0 z"
             id="n" />
        </defs>
        <g
           id="g194"
           class="st17"
           clip-path="url(#T)">
          <defs
             id="defs196">
            <path
               inkscape:connector-curvature="0"
               d="m 517.6,296.9 77.4,0 0,70.3 -77.4,0 z"
               id="o" />
          </defs>
          <g
             id="g199"
             class="st18"
             clip-path="url(#U)">
            <defs
               id="defs201">
              <path
                 inkscape:connector-curvature="0"
                 d="m 517.6,296.9 77.4,0 0,70.3 -77.4,0 z"
                 id="p" />
            </defs>
            <path
               style="fill:#b72126"
               inkscape:connector-curvature="0"
               id="path204"
               class="st19"
               d="m 595,318.1 0,10.5 c 0,2 -1.6,3.5 -3.5,3.5 l 0,28.1 c 0,3.9 -3.2,7 -7,7 l -56.3,0 c -3.9,0 -7,-3.2 -7,-7 l 0,-28.1 c -2,0 -3.5,-1.6 -3.5,-3.5 l 0,-10.5 c 0,-3.9 3.2,-7 7,-7 l 11.2,0 c -0.4,-1.1 -0.6,-2.3 -0.6,-3.5 0,-5.8 4.7,-10.6 10.5,-10.6 3.5,0 6.6,1.8 8.6,4.4 l 2,2.7 2,-2.7 c 1.9,-2.6 5,-4.4 8.6,-4.4 5.8,0 10.5,4.7 10.5,10.6 0,1.2 -0.2,2.4 -0.6,3.5 l 11.1,0 c 3.8,-0.1 7,3.1 7,7 m -7,0 -28.1,0 0,7 28.1,0 0,-7 z m -3.6,14 -24.6,0 0,28.1 24.6,0 0,-28.1 z m -14,-24.6 c 0,-2 -1.6,-3.5 -3.5,-3.5 -2,0 -3.5,1.6 -3.5,3.5 0,1.9 1.6,3.5 3.5,3.5 1.9,0 3.5,-1.6 3.5,-3.5 m -17.6,24.6 -24.6,0 0,28.1 24.6,0 0,-28.1 z m 0,-14 -28.1,0 0,7 28.1,0 0,-7 z m -3.5,-10.6 c 0,-2 -1.6,-3.5 -3.5,-3.5 -1.9,0 -3.5,1.6 -3.5,3.5 0,1.9 1.6,3.5 3.5,3.5 1.9,0 3.5,-1.6 3.5,-3.5"
               clip-path="url(#V)" />
          </g>
        </g>
      </g>
    </g>
    <path
       style="fill:none;stroke:#8b999e;stroke-width:3.24336004;stroke-miterlimit:10"
       inkscape:connector-curvature="0"
       id="path206"
       stroke-miterlimit="10"
       class="st0"
       d="m 549.144,380.87 c -5.406,8.973 -14.596,18.92 -21.84,26.055" />
    <path
       style="fill:#8b999e"
       inkscape:connector-curvature="0"
       id="path208"
       d="m 526.332,401.303 -9.514,15.46 16,-8.65 z"
       class="st1" />
    <path
       style="fill:none;stroke:#8b999e;stroke-width:3.24336004;stroke-miterlimit:10"
       inkscape:connector-curvature="0"
       id="path210"
       stroke-miterlimit="10"
       class="st0"
       d="m 603.308,255.784 c -1.73,21.407 -12.54,42.813 -12.54,42.813" />
    <g
       id="g212"
       transform="matrix(1.08112,0,0,1.08112,-26.013,-19.47)">
      <defs
         id="defs214">
        <path
           inkscape:connector-curvature="0"
           d="m 219.1,266.4 78.2,0 0,71.1 -78.2,0 z"
           id="i" />
      </defs>
      <g
         id="g217"
         class="st20"
         clip-path="url(#W)">
        <defs
           id="defs219">
          <path
             inkscape:connector-curvature="0"
             d="m 219.1,266.4 78.2,0 0,71.1 -78.2,0 z"
             id="j" />
        </defs>
        <g
           id="g222"
           class="st21"
           clip-path="url(#X)">
          <defs
             id="defs224">
            <path
               inkscape:connector-curvature="0"
               d="m 219.5,266.8 77.4,0 0,70.3 -77.4,0 z"
               id="k" />
          </defs>
          <g
             id="g227"
             class="st22"
             clip-path="url(#Y)">
            <defs
               id="defs229">
              <path
                 inkscape:connector-curvature="0"
                 d="m 219.5,266.8 77.4,0 0,70.3 -77.4,0 z"
                 id="l" />
            </defs>
            <path
               style="fill:#b72126"
               inkscape:connector-curvature="0"
               id="path232"
               class="st23"
               d="m 296.8,287.9 0,10.5 c 0,2 -1.6,3.5 -3.5,3.5 l 0,28.1 c 0,3.9 -3.2,7 -7,7 l -56.3,0 c -3.9,0 -7,-3.2 -7,-7 l 0,-28.1 c -2,0 -3.5,-1.6 -3.5,-3.5 l 0,-10.5 c 0,-3.9 3.2,-7 7,-7 l 11.2,0 c -0.4,-1.1 -0.6,-2.3 -0.6,-3.5 0,-5.8 4.7,-10.6 10.5,-10.6 3.5,0 6.6,1.8 8.6,4.4 l 2,2.7 2,-2.7 c 1.9,-2.6 5,-4.4 8.6,-4.4 5.8,0 10.5,4.7 10.5,10.6 0,1.2 -0.2,2.4 -0.6,3.5 l 11.1,0 c 3.9,-0.1 7,3.1 7,7 m -7,0 -28.1,0 0,7 28.1,0 0,-7 z m -3.5,14 -24.6,0 0,28.1 24.6,0 0,-28.1 z m -14.1,-24.6 c 0,-2 -1.6,-3.5 -3.5,-3.5 -2,0 -3.5,1.6 -3.5,3.5 0,1.9 1.6,3.5 3.5,3.5 2,0 3.5,-1.5 3.5,-3.5 m -17.5,24.6 -24.7,0 0,28.1 24.6,0 0,-28.1 z m 0,-14 -28.1,0 0,7 28.1,0 0,-7 z m -3.6,-10.6 c 0,-2 -1.6,-3.5 -3.5,-3.5 -1.9,0 -3.5,1.6 -3.5,3.5 0,1.9 1.6,3.5 3.5,3.5 2,0 3.5,-1.5 3.5,-3.5"
               clip-path="url(#Z)" />
          </g>
        </g>
      </g>
    </g>
    <g
       id="g234"
       transform="matrix(1.08112,0,0,1.08112,-26.013,-19.47)">
      <defs
         id="defs236">
        <path
           inkscape:connector-curvature="0"
           d="m 408.6,201.5 78.2,0 0,71.1 -78.2,0 z"
           id="e" />
      </defs>
      <g
         id="g239"
         class="st24"
         clip-path="url(#aa)">
        <defs
           id="defs241">
          <path
             inkscape:connector-curvature="0"
             d="m 408.6,201.5 78.2,0 0,71.1 -78.2,0 z"
             id="f" />
        </defs>
        <g
           id="g244"
           class="st25"
           clip-path="url(#ab)">
          <defs
             id="defs246">
            <path
               inkscape:connector-curvature="0"
               d="m 409,201.9 77.4,0 0,70.3 -77.4,0 z"
               id="g" />
          </defs>
          <g
             id="g249"
             class="st26"
             clip-path="url(#ac)">
            <defs
               id="defs251">
              <path
                 inkscape:connector-curvature="0"
                 d="m 409,201.9 77.4,0 0,70.3 -77.4,0 z"
                 id="h" />
            </defs>
            <path
               style="fill:#b72126"
               inkscape:connector-curvature="0"
               id="path254"
               class="st27"
               d="m 486.3,223 0,10.5 c 0,2 -1.6,3.5 -3.5,3.5 l 0,28.1 c 0,3.9 -3.2,7 -7,7 l -56.3,0 c -3.9,0 -7,-3.2 -7,-7 l 0,-28.1 c -2,0 -3.5,-1.6 -3.5,-3.5 l 0,-10.5 c 0,-3.9 3.2,-7 7,-7 l 11.2,0 c -0.4,-1.1 -0.6,-2.3 -0.6,-3.5 0,-5.8 4.7,-10.6 10.5,-10.6 3.5,0 6.6,1.8 8.6,4.4 l 2,2.7 2,-2.7 c 1.9,-2.6 5,-4.4 8.6,-4.4 5.8,0 10.5,4.7 10.5,10.6 0,1.2 -0.2,2.4 -0.6,3.5 l 11.1,0 c 3.9,-0.1 7,3.1 7,7 m -7,0 -28.1,0 0,7 28.1,0 0,-7 z m -3.5,14 -24.6,0 0,28.1 24.6,0 0,-28.1 z m -14.1,-24.6 c 0,-2 -1.6,-3.5 -3.5,-3.5 -2,0 -3.5,1.6 -3.5,3.5 0,1.9 1.6,3.5 3.5,3.5 2,0 3.5,-1.5 3.5,-3.5 m -17.6,24.6 -24.6,0 0,28.1 24.6,0 0,-28.1 z m 0,-14 -28.1,0 0,7 28.1,0 0,-7 z m -3.5,-10.6 c 0,-2 -1.6,-3.5 -3.5,-3.5 -1.9,0 -3.5,1.6 -3.5,3.5 0,1.9 1.6,3.5 3.5,3.5 1.9,0 3.5,-1.5 3.5,-3.5"
               clip-path="url(#ad)" />
          </g>
        </g>
      </g>
    </g>
    <g
       id="g256"
       transform="matrix(1.08112,0,0,1.08112,-26.013,-19.47)">
      <defs
         id="defs258">
        <path
           inkscape:connector-curvature="0"
           d="m 176.8,178.5 78.2,0 0,71.1 -78.2,0 z"
           id="a" />
      </defs>
      <g
         id="g261"
         class="st28"
         clip-path="url(#ae)">
        <defs
           id="defs263">
          <path
             inkscape:connector-curvature="0"
             d="m 176.8,178.6 78.2,0 0,71.1 -78.2,0 z"
             id="b" />
        </defs>
        <g
           id="g266"
           class="st29"
           clip-path="url(#af)">
          <defs
             id="defs268">
            <path
               inkscape:connector-curvature="0"
               d="m 177.2,179 77.4,0 0,70.3 -77.4,0 z"
               id="c" />
          </defs>
          <g
             id="g271"
             class="st30"
             clip-path="url(#ag)">
            <defs
               id="defs273">
              <path
                 inkscape:connector-curvature="0"
                 d="m 177.2,179 77.4,0 0,70.3 -77.4,0 z"
                 id="d" />
            </defs>
            <path
               style="fill:#b72126"
               inkscape:connector-curvature="0"
               id="path276"
               class="st31"
               d="m 254.5,200.1 0,10.5 c 0,2 -1.6,3.5 -3.5,3.5 l 0,28.1 c 0,3.9 -3.2,7 -7,7 l -56.3,0 c -3.9,0 -7,-3.2 -7,-7 l 0,-28.1 c -2,0 -3.5,-1.6 -3.5,-3.5 l 0,-10.5 c 0,-3.9 3.2,-7 7,-7 l 11.2,0 c -0.4,-1.1 -0.6,-2.3 -0.6,-3.5 0,-5.8 4.7,-10.6 10.5,-10.6 3.5,0 6.6,1.8 8.6,4.4 l 2,2.7 2,-2.7 c 1.9,-2.6 5,-4.4 8.6,-4.4 5.8,0 10.5,4.7 10.5,10.6 0,1.2 -0.2,2.4 -0.6,3.5 l 11.1,0 c 3.9,-0.1 7,3.1 7,7 m -7,0 -28.1,0 0,7 28.1,0 0,-7 z m -3.5,14 -24.6,0 0,28.1 24.6,0 0,-28.1 z m -14.1,-24.6 c 0,-2 -1.6,-3.5 -3.5,-3.5 -2,0 -3.5,1.6 -3.5,3.5 0,1.9 1.6,3.5 3.5,3.5 1.9,0 3.5,-1.6 3.5,-3.5 m -17.6,24.6 -24.6,0 0,28.1 24.6,0 0,-28.1 z m 0,-14 -28.1,0 0,7 28.1,0 0,-7 z m -3.5,-10.6 c 0,-2 -1.6,-3.5 -3.5,-3.5 -1.9,0 -3.5,1.6 -3.5,3.5 0,1.9 1.6,3.5 3.5,3.5 1.9,0 3.5,-1.6 3.5,-3.5"
               clip-path="url(#ah)" />
          </g>
        </g>
      </g>
    </g>
    <path
       style="fill:none;stroke:#8b999e;stroke-width:3.24336004;stroke-miterlimit:10"
       inkscape:connector-curvature="0"
       id="path278"
       stroke-miterlimit="10"
       class="st0"
       d="m 327.406,120.86 c 0,71.354 -39.894,156.98 -39.894,156.98 m -36.002,78.597 c -6.486,11.892 -14.918,23.676 -21.297,31.893" />
    <path
       style="fill:#8b999e"
       inkscape:connector-curvature="0"
       id="path280"
       d="m 228.59,382.924 -7.35,16.65 14.703,-10.704 z"
       class="st1" />
    <path
       style="fill:none;stroke:#8b999e;stroke-width:3.24336004;stroke-miterlimit:10"
       inkscape:connector-curvature="0"
       id="path282"
       stroke-miterlimit="10"
       class="st0"
       d="m 251.51,227.35 c 121.843,38.49 206.387,132.546 206.387,132.546" />
    <g
       id="g284">
      <path
         style="fill:none;stroke:#8b999e;stroke-width:3.24336004;stroke-miterlimit:10"
         inkscape:connector-curvature="0"
         id="path286"
         stroke-miterlimit="10"
         class="st0"
         d="m 160.913,201.404 c -12.65,-4 -27.352,-5.406 -37.947,-5.838" />
      <path
         style="fill:#8b999e"
         inkscape:connector-curvature="0"
         id="path288"
         d="m 126.21,190.917 -17.623,4.433 17.514,4.973 z"
         class="st1" />
    </g>
    <path
       style="fill:none;stroke:#8b999e;stroke-width:3.24336004;stroke-miterlimit:10"
       inkscape:connector-curvature="0"
       id="path290"
       stroke-miterlimit="10"
       class="st0"
       d="M 236.375,413.52 C 311.081,309.84 412.165,245.514 412.165,245.514" />
    <g
       id="g292">
      <path
         style="fill:none;stroke:#8b999e;stroke-width:2.16224003;stroke-miterlimit:10"
         inkscape:connector-curvature="0"
         id="path294"
         stroke-miterlimit="10"
         class="st32"
         d="m 493.682,209.62 c 12.973,-2.81 27.028,-4 37.3,-4.648" />
      <path
         style="fill:#8b999e"
         inkscape:connector-curvature="0"
         id="path296"
         d="m 527.737,210.053 18.38,-5.622 -18.704,-4.323 z"
         class="st1" />
    </g>
  </g>
</svg>
