<svg xmlns="http://www.w3.org/2000/svg" id="a" viewBox="0 0 24 24"><path d="M7,13c-.4,0-.79-.25-.94-.65l-2.99-8c-.19-.52.07-1.09.59-1.29.52-.19,1.09.07,1.29.59l2.99,8c.19.52-.07,1.09-.59,1.29-.12.04-.23.06-.35.06Z" fill="#fbbc04" stroke-width="0"/><g id="b"><path d="M20,13c-.2,0-.41-.06-.59-.19l-8.3-6.04,1.82,4.88c.19.52-.07,1.09-.59,1.29s-1.09-.07-1.29-.59l-2.98-8c-.15-.41-.02-.88.33-1.15.35-.27.84-.27,1.19-.01l10.99,8c.45.33.54.95.22,1.4-.2.27-.5.41-.81.41Z" fill="#ea4335" stroke-width="0"/></g><path d="M18.3,12l-7.2,5.24,1.83-4.89c.04-.12.06-.23.06-.35h-2.07l-2.86,7.65c-.15.41-.02.88.33,1.15.18.14.39.2.6.2s.41-.06.59-.19l11-8c.27-.2.41-.5.41-.81h-2.7Z" fill="#4285f4" stroke-width="0"/><path d="M5.93,12l-2.87,7.65c-.19.52.07,1.09.59,1.29.12.04.23.06.35.06.4,0,.79-.25.94-.65l3-8c.04-.12.06-.24.06-.35h-2.07Z" fill="#34a853" stroke-width="0"/><script xmlns=""/></svg>