<?xml version="1.0" encoding="UTF-8" standalone="no"?>
<svg
   xmlns:dc="http://purl.org/dc/elements/1.1/"
   xmlns:cc="http://creativecommons.org/ns#"
   xmlns:rdf="http://www.w3.org/1999/02/22-rdf-syntax-ns#"
   xmlns:svg="http://www.w3.org/2000/svg"
   xmlns="http://www.w3.org/2000/svg"
   xmlns:sodipodi="http://sodipodi.sourceforge.net/DTD/sodipodi-0.dtd"
   xmlns:inkscape="http://www.inkscape.org/namespaces/inkscape"
   version="1.1"
   width="173.8"
   height="169.39999"
   id="svg2"
   inkscape:version="0.91 r13725"
   sodipodi:docname="cloud-cup.svg">
  <metadata
     id="metadata24">
    <rdf:RDF>
      <cc:Work
         rdf:about="">
        <dc:format>image/svg+xml</dc:format>
        <dc:type
           rdf:resource="http://purl.org/dc/dcmitype/StillImage" />
        <dc:title></dc:title>
      </cc:Work>
    </rdf:RDF>
  </metadata>
  <defs
     id="defs22" />
  <sodipodi:namedview
     pagecolor="#ffffff"
     bordercolor="#666666"
     borderopacity="1"
     objecttolerance="10"
     gridtolerance="10"
     guidetolerance="10"
     inkscape:pageopacity="0"
     inkscape:pageshadow="2"
     inkscape:window-width="988"
     inkscape:window-height="675"
     id="namedview20"
     showgrid="false"
     fit-margin-top="0"
     fit-margin-left="0"
     fit-margin-right="0"
     fit-margin-bottom="0"
     inkscape:zoom="0.90769231"
     inkscape:cx="-71.947458"
     inkscape:cy="82.7"
     inkscape:window-x="0"
     inkscape:window-y="0"
     inkscape:window-maximized="0"
     inkscape:current-layer="svg2" />
  <path
     d="m 53.6,4.2 27.6,7.5 26,-11.7 17.9,22.3 28.1,5.8 1.3,28.6 19.3,21.2 -15.7,23.9 3.1,28.4 -26.8,10.2 -14.2,24.8 -27.6,-7.5 -26,11.7 L 48.7,147.1 20.6,141.3 19.3,112.7 0,91.5 15.7,67.6 12.6,39.2 39.4,29 Z"
     id="path4"
     inkscape:connector-curvature="0"
     style="fill:#33b679" />
  <path
     d="m 62.3,134.4 25.5,25.5 4.8,-2.2 27.6,7.5 14.2,-24.8 26.8,-10.2 -3.1,-28.4 8.4,-12.9 L 116.8,39.2 85.3,113 Z"
     id="path6"
     inkscape:connector-curvature="0"
     style="opacity:0.15;fill:#424242;enable-background:new" />
  <path
     d="m 99,86.3 0,-6.5 c 7.8,0 13.9,-2.2 18.2,-6.6 4.7,-4.9 6.1,-11.3 6.6,-15.1 l -11.9,0 0,-6.5 18.5,0 0.1,3.1 c 0,0.6 0.4,13.7 -8.6,22.9 -5.6,5.8 -13.2,8.7 -22.9,8.7 z m -26.1,0 0,-6.5 C 65.1,79.8 59,77.6 54.7,73.2 50,68.3 48.6,61.9 48.1,58.1 l 11.9,0 0,-6.5 -18.4,0 -0.1,3.1 c 0,0.6 -0.4,13.7 8.6,22.9 5.4,5.8 13.1,8.7 22.8,8.7 z m 5.3,0 14.3,0 0,26.8 -14.3,0 z m 38,-37.1 0,-9.4 -60.7,0 0,9.4 c 0,0 -1.9,50.4 30.3,50.4 32.3,0 30.4,-50.4 30.4,-50.4 z"
     id="path8"
     inkscape:connector-curvature="0"
     style="fill:#ffe068" />
  <path
     d="m 85.8,49.2 -30.3,0 c 0,0 -1.9,50.4 30.3,50.4 l 0,-50.4 z"
     id="path10"
     inkscape:connector-curvature="0"
     style="fill:#f2b31b" />
  <path
     d="m 85.8,49.2 30.3,0 c 0,0 1.9,50.4 -30.3,50.4 l 0,-50.4 z"
     id="path12"
     inkscape:connector-curvature="0"
     style="fill:#fbcb42" />
  <path
     d="m 55.5,39.9 60.7,0 0,9.4 -60.7,0 z"
     id="path14"
     inkscape:connector-curvature="0"
     style="fill:#ffe068" />
  <path
     d="m 109.4,134.4 c 0,-13 -10.6,-23.6 -23.6,-23.6 -13,0 -23.6,10.6 -23.6,23.6 l 47.2,0 z"
     id="path16"
     inkscape:connector-curvature="0"
     style="fill:#f2b31b" />
  <path
     d="m 62.3,134.4 54.5,-95.2 49.7,49.7 7.3,-11 L 154.5,56.7 153.2,28.1 125.1,22.3 107.2,0 81.2,11.7 53.6,4.2 39.4,29 12.6,39.2 15.7,67.6 0,91.5 l 19.3,21.2 1.3,28.6 28.1,5.8 17.9,22.3 21.2,-9.5 z m -103.4,-177.7 256,0 0,256 -256,0 z"
     id="path18"
     inkscape:connector-curvature="0"
     style="fill:none" />
</svg>
