<svg xmlns="http://www.w3.org/2000/svg" viewBox="0 0 512 512">
  <defs>
    <style>
      .cls-3{fill:#fff}
    </style>
  </defs>
  <title>
    Cloud Run
  </title>
  <path id="BASE" fill="#4285f4" d="M505.9 232.48l-105.22-183C392.24 34.91 377 26 361.22 26H150.79c-16.86 0-31.59 9.88-39.46 23.5L6.11 232.1a45.9 45.9 0 0 0 0 45.75l105.22 183.8C119.75 476.26 135 486 150.78 486h210.43c16.86 0 31.59-10.63 39.46-24.24l105.22-183a46.94 46.94 0 0 0 .01-46.28z"/>
  <path id="shadow" d="M390.38 256l-147.66-87 11.62 54.82L199 168.48 209.84 252l-47 115.86L281 486h80.24c16.86 0 31.59-10.63 39.46-24.24L472 337.65z" opacity=".07"/>
  <g id="art">
    <path d="M226.16 256l-27.13-87.52-36.18-24.36L197.52 256l-34.67 111.88 36.18-24.36L226.16 256z" class="cls-3"/>
    <path d="M224.2 144.12L258.88 256 224.2 367.88 390.38 256zM270.67 240l-17.75-57.26L338 240z" class="cls-3"/>
  </g>
</svg>