<svg version="1.1" viewBox="0.0 0.0 335.53543307086613 304.745406824147" fill="none" stroke="none" stroke-linecap="square" stroke-miterlimit="10" xmlns:xlink="http://www.w3.org/1999/xlink" xmlns="http://www.w3.org/2000/svg"><clipPath id="p.0"><path d="m0 0l335.53543 0l0 304.7454l-335.53543 0l0 -304.7454z" clip-rule="nonzero"/></clipPath><g clip-path="url(#p.0)"><path fill="#000000" fill-opacity="0.0" d="m0 0l335.53543 0l0 304.7454l-335.53543 0z" fill-rule="evenodd"/><path fill="#ffffff" d="m16.110674 229.46811l19.999998 0l0 30.582672l-19.999998 0z" fill-rule="evenodd"/><path fill="#ffffff" d="m24.266523 243.65831l0 19.31453l287.4163 0l0 -143.01938l-73.11972 65.76125l0 -66.22042l-73.57889 62.541176l0 -63.921623z" fill-rule="evenodd"/><path stroke="#ffffff" stroke-width="16.0" stroke-linejoin="round" stroke-linecap="butt" d="m24.266523 243.65831l0 19.31453l287.4163 0l0 -143.01938l-73.11972 65.76125l0 -66.22042l-73.57889 62.541176l0 -63.921623z" fill-rule="evenodd"/><path fill="#ffffff" d="m24.147589 229.39813l55.644806 -46.905884l-7.81765 -140.7206l-34.94983 0z" fill-rule="evenodd"/><path stroke="#ffffff" stroke-width="16.0" stroke-linejoin="round" stroke-linecap="butt" d="m24.147589 229.39813l55.644806 -46.905884l-7.81765 -140.7206l-34.94983 0z" fill-rule="evenodd"/><path fill="#000000" d="m24.147589 229.39813l55.644806 -46.905884l-7.81765 -140.7206l-34.94983 0z" fill-rule="evenodd"/><path fill="#000000" d="m24.266523 243.65831l0 19.31453l287.4163 0l0 -143.01938l-73.11972 65.76125l0 -66.22042l-73.57889 62.541176l0 -63.921623z" fill-rule="evenodd"/></g></svg>