<?xml version="1.0" encoding="utf-8"?>
<!-- Generator: Adobe Illustrator 16.0.0, SVG Export Plug-In . SVG Version: 6.00 Build 0)  -->
<!DOCTYPE svg PUBLIC "-//W3C//DTD SVG 1.1//EN" "http://www.w3.org/Graphics/SVG/1.1/DTD/svg11.dtd">
<svg version="1.1" id="Layer_1" xmlns="http://www.w3.org/2000/svg" xmlns:xlink="http://www.w3.org/1999/xlink" x="0px" y="0px"
	 width="780.966px" height="691.896px" viewBox="0 0 780.966 691.896" enable-background="new 0 0 780.966 691.896"
	 xml:space="preserve">
<g>
	<polygon fill="#CFCECB" points="248.396,581.729 111.12,343.967 248.396,106.202 522.938,106.202 660.214,343.967 522.938,581.729 
			"/>
	<path fill="#F4B51A" d="M271.692,551.815l-122.045-208.66l-66.91-114.397c-4.875-8.443-6.905-19.997-6.129-31.059L6.309,319.459
		c-8.412,14.571-8.412,38.413,0,52.983l169.145,292.965c8.41,14.568,29.061,26.489,45.885,26.489h201.314
		c8.055-4.768,15.068-11.228,19.17-18.327l68.91-121.754H271.692z"/>
	<polygon fill="#DD462F" points="774.655,319.459 605.511,26.492 674.231,145.515 	"/>
	<path fill="#DD462F" d="M774.655,319.459L674.231,145.515c-8.686-5.33-18.682-8.71-27.611-8.71H510.478l117.717,207.489
		L510.733,551.815l-68.91,121.754c-4.102,7.1-11.115,13.56-19.17,18.327h136.971c16.826,0,37.475-11.921,45.887-26.489
		l67.27-116.512l101.875-176.453C783.069,357.872,783.069,334.03,774.655,319.459z"/>
	<path fill="#517DBF" d="M605.511,26.492C597.099,11.921,576.45,0,559.624,0H426.591H221.339c-16.824,0-37.475,11.921-45.885,26.492
		L76.608,197.699c-0.776,11.062,1.254,22.615,6.129,31.059l66.91,114.397l119.444-206.351h241.387H646.62
		c8.93,0,18.926,3.38,27.611,8.71L605.511,26.492z"/>
	<polygon fill="#CFCECB" points="149.647,343.155 271.692,551.815 510.733,551.815 628.194,344.294 510.478,136.805 
		269.091,136.805 	"/>
	<path fill="#4F71A9" d="M80.905,190.206l-4.325,7.493c-0.776,11.062,1.254,22.615,6.128,31.059l66.911,114.397l35.597-61.498
		L80.905,190.206z"/>
	<path fill="#C3432F" d="M678.765,153.316l-4.502-7.802c-8.682-5.33-18.676-8.71-27.609-8.71H510.513l35.438,62.462L678.765,153.316
		z"/>
	<path fill="#D19D2A" d="M411.21,691.896h11.707c8.055-4.768,15.066-11.228,19.166-18.327l68.914-121.754H437.61L411.21,691.896z"/>
	<g>
		<path fill="#FFFFFF" d="M390.253,452.495c-59,0-107-48.001-107-107c0-58.998,48-106.999,107-106.999
			c58.998,0,106.998,48.001,106.998,106.999C497.251,404.494,449.251,452.495,390.253,452.495z"/>
		<path fill="#CAC8C6" d="M390.253,240.024c58.248,0,105.471,47.222,105.471,105.471c0,58.25-47.223,105.471-105.471,105.471
			c-58.25,0-105.471-47.221-105.471-105.471C284.782,287.246,332.003,240.024,390.253,240.024 M390.253,236.968
			c-59.844,0-108.529,48.686-108.529,108.527c0,59.843,48.686,108.528,108.529,108.528c59.84,0,108.527-48.686,108.527-108.528
			C498.78,285.653,450.093,236.968,390.253,236.968L390.253,236.968z"/>
	</g>
	<g>
		<path fill="#FFFFFF" d="M230.058,87.954c-11.383,0-20.645-9.262-20.645-20.645c0-11.384,9.262-20.645,20.645-20.645
			c11.385,0,20.645,9.261,20.645,20.645C250.702,78.692,241.442,87.954,230.058,87.954z"/>
		<path fill="#4472B8" d="M230.058,48.193c10.557,0,19.117,8.558,19.117,19.116c0,10.558-8.561,19.115-19.117,19.115
			s-19.115-8.558-19.115-19.115C210.942,56.751,219.501,48.193,230.058,48.193 M230.058,45.136
			c-12.227,0-22.172,9.946-22.172,22.174c0,12.227,9.945,22.173,22.172,22.173s22.174-9.946,22.174-22.173
			C252.231,55.082,242.284,45.136,230.058,45.136L230.058,45.136z"/>
	</g>
	<circle fill="#FFFFFF" stroke="#4472B8" stroke-miterlimit="10" cx="549.223" cy="67.31" r="19.116"/>
	<g>
		<path fill="#FFFFFF" d="M230.058,641.293c-11.383,0-20.645-9.261-20.645-20.645s9.262-20.645,20.645-20.645
			c11.385,0,20.645,9.261,20.645,20.645S241.442,641.293,230.058,641.293z"/>
		<path fill="#F3B01C" d="M230.058,601.532c10.557,0,19.117,8.56,19.117,19.116s-8.561,19.116-19.117,19.116
			s-19.115-8.56-19.115-19.116S219.501,601.532,230.058,601.532 M230.058,598.476c-12.227,0-22.172,9.946-22.172,22.173
			c0,12.228,9.945,22.173,22.172,22.173s22.174-9.945,22.174-22.173C252.231,608.422,242.284,598.476,230.058,598.476
			L230.058,598.476z"/>
	</g>
	<g>
		<path fill="#FFFFFF" d="M549.224,641.293c-11.385,0-20.645-9.261-20.645-20.645s9.26-20.645,20.645-20.645
			c11.383,0,20.645,9.261,20.645,20.645S560.606,641.293,549.224,641.293z"/>
		<path fill="#DE482F" d="M549.224,601.532c10.557,0,19.115,8.56,19.115,19.116s-8.559,19.116-19.115,19.116
			s-19.117-8.56-19.117-19.116S538.667,601.532,549.224,601.532 M549.224,598.476c-12.229,0-22.174,9.946-22.174,22.173
			c0,12.228,9.945,22.173,22.174,22.173s22.172-9.945,22.172-22.173C571.396,608.422,561.452,598.476,549.224,598.476
			L549.224,598.476z"/>
	</g>
	<g>
		<path fill="#FFFFFF" d="M709.886,366.14c-11.383,0-20.645-9.261-20.645-20.645c0-11.383,9.262-20.645,20.645-20.645
			c11.385,0,20.645,9.262,20.645,20.645C730.53,356.879,721.271,366.14,709.886,366.14z"/>
		<path fill="#DE482F" d="M709.886,326.38c10.557,0,19.117,8.558,19.117,19.115c0,10.559-8.561,19.116-19.117,19.116
			s-19.115-8.558-19.115-19.116C690.771,334.938,699.329,326.38,709.886,326.38 M709.886,323.322
			c-12.225,0-22.172,9.946-22.172,22.173c0,12.228,9.947,22.174,22.172,22.174c12.227,0,22.174-9.946,22.174-22.174
			C732.06,333.269,722.112,323.322,709.886,323.322L709.886,323.322z"/>
	</g>
	<g>
		<path fill="#FFFFFF" d="M69.108,366.14c-11.384,0-20.645-9.261-20.645-20.645c0-11.383,9.261-20.645,20.645-20.645
			s20.644,9.262,20.644,20.645C89.752,356.879,80.492,366.14,69.108,366.14z"/>
		<path fill="#F3B01C" d="M69.108,326.38c10.557,0,19.116,8.558,19.116,19.115c0,10.559-8.56,19.116-19.116,19.116
			s-19.116-8.558-19.116-19.116C49.992,334.938,58.551,326.38,69.108,326.38 M69.108,323.322c-12.227,0-22.173,9.946-22.173,22.173
			c0,12.228,9.946,22.174,22.173,22.174c12.228,0,22.173-9.946,22.173-22.174C91.281,333.269,81.335,323.322,69.108,323.322
			L69.108,323.322z"/>
	</g>
</g>
</svg>
